# xmcd CD database file
#
# Track frame offsets:
#	150
#	19960
#	39374
#	55633
#	73553
#	88233
#	102855
#	118028
#	135444
#	149860
#	163513
#	178950
#	198433
#	214260
#
# Disc length: 3083 seconds
#
# Revision: 0
# Processed by: cddbd v1.5.2PL0 Copyright (c) Steve Scherf et al.
# Submitted via: CDex 1.70beta2
#
DISCID=d00c090e
DTITLE=Neto and Davy - Perdido no Amor
DYEAR=1900
DGENRE=Country
TTITLE0=No laço do Amor
TTITLE1=Perdido no Amor
TTITLE2=No laço do Amor
TTITLE3=Custe o que custar
TTITLE4=É pra fazer amor
TTITLE5=Aparecida do Norte
TTITLE6=To morrendo de saudade
TTITLE7=Onde se esconde
TTITLE8=O limite é o céu
TTITLE9=Remexe mexe
TTITLE10=Por ciúme
TTITLE11=Obrigado Pai
TTITLE12=No Banquinho
TTITLE13=O que é um homem
EXTD=
EXTT0=
EXTT1=
EXTT2=
EXTT3=
EXTT4=
EXTT5=
EXTT6=
EXTT7=
EXTT8=
EXTT9=
EXTT10=
EXTT11=
EXTT12=
EXTT13=
PLAYORDER=
